<mxfile host="app.diagrams.net" agent="Mozilla/5.0 (X11; Linux x86_64) AppleWebKit/537.36 (KHTML, like Gecko) Chrome/124.0.0.0 Safari/537.36" version="24.7.17">
  <diagram name="Page-1" id="x6FNjm6DMiGuksejZ98N">
    <mxGraphModel dx="1434" dy="755" grid="1" gridSize="10" guides="1" tooltips="1" connect="1" arrows="1" fold="1" page="1" pageScale="1" pageWidth="850" pageHeight="1100" math="0" shadow="0">
      <root>
        <mxCell id="0" />
        <mxCell id="1" parent="0" />
        <mxCell id="x54wOhMbI9CH0eO8ZWnR-1" value="Ejercicio 1 Apartado a" style="shape=table;startSize=30;container=1;collapsible=0;childLayout=tableLayout;strokeColor=default;fontSize=16;" parent="1" vertex="1">
          <mxGeometry x="10" y="120" width="830" height="434" as="geometry" />
        </mxCell>
        <mxCell id="x54wOhMbI9CH0eO8ZWnR-2" value="" style="shape=tableRow;horizontal=0;startSize=0;swimlaneHead=0;swimlaneBody=0;strokeColor=inherit;top=0;left=0;bottom=0;right=0;collapsible=0;dropTarget=0;fillColor=none;points=[[0,0.5],[1,0.5]];portConstraint=eastwest;fontSize=16;" parent="x54wOhMbI9CH0eO8ZWnR-1" vertex="1">
          <mxGeometry y="30" width="830" height="74" as="geometry" />
        </mxCell>
        <mxCell id="x54wOhMbI9CH0eO8ZWnR-3" value="Entidad" style="shape=partialRectangle;html=1;whiteSpace=wrap;connectable=0;strokeColor=inherit;overflow=hidden;fillColor=none;top=0;left=0;bottom=0;right=0;pointerEvents=1;fontSize=16;fontStyle=1" parent="x54wOhMbI9CH0eO8ZWnR-2" vertex="1">
          <mxGeometry width="276" height="74" as="geometry">
            <mxRectangle width="276" height="74" as="alternateBounds" />
          </mxGeometry>
        </mxCell>
        <mxCell id="x54wOhMbI9CH0eO8ZWnR-4" value="Atributos" style="shape=partialRectangle;html=1;whiteSpace=wrap;connectable=0;strokeColor=inherit;overflow=hidden;fillColor=none;top=0;left=0;bottom=0;right=0;pointerEvents=1;fontSize=16;fontStyle=1" parent="x54wOhMbI9CH0eO8ZWnR-2" vertex="1">
          <mxGeometry x="276" width="278" height="74" as="geometry">
            <mxRectangle width="278" height="74" as="alternateBounds" />
          </mxGeometry>
        </mxCell>
        <mxCell id="x54wOhMbI9CH0eO8ZWnR-5" value="Clave primaria" style="shape=partialRectangle;html=1;whiteSpace=wrap;connectable=0;strokeColor=inherit;overflow=hidden;fillColor=none;top=0;left=0;bottom=0;right=0;pointerEvents=1;fontSize=16;fontStyle=1" parent="x54wOhMbI9CH0eO8ZWnR-2" vertex="1">
          <mxGeometry x="554" width="276" height="74" as="geometry">
            <mxRectangle width="276" height="74" as="alternateBounds" />
          </mxGeometry>
        </mxCell>
        <mxCell id="x54wOhMbI9CH0eO8ZWnR-6" value="" style="shape=tableRow;horizontal=0;startSize=0;swimlaneHead=0;swimlaneBody=0;strokeColor=inherit;top=0;left=0;bottom=0;right=0;collapsible=0;dropTarget=0;fillColor=none;points=[[0,0.5],[1,0.5]];portConstraint=eastwest;fontSize=16;" parent="x54wOhMbI9CH0eO8ZWnR-1" vertex="1">
          <mxGeometry y="104" width="830" height="95" as="geometry" />
        </mxCell>
        <mxCell id="x54wOhMbI9CH0eO8ZWnR-7" value="" style="shape=partialRectangle;html=1;whiteSpace=wrap;connectable=0;strokeColor=inherit;overflow=hidden;fillColor=none;top=0;left=0;bottom=0;right=0;pointerEvents=1;fontSize=16;" parent="x54wOhMbI9CH0eO8ZWnR-6" vertex="1">
          <mxGeometry width="276" height="95" as="geometry">
            <mxRectangle width="276" height="95" as="alternateBounds" />
          </mxGeometry>
        </mxCell>
        <mxCell id="x54wOhMbI9CH0eO8ZWnR-8" value="" style="shape=partialRectangle;html=1;whiteSpace=wrap;connectable=0;strokeColor=inherit;overflow=hidden;fillColor=none;top=0;left=0;bottom=0;right=0;pointerEvents=1;fontSize=16;" parent="x54wOhMbI9CH0eO8ZWnR-6" vertex="1">
          <mxGeometry x="276" width="278" height="95" as="geometry">
            <mxRectangle width="278" height="95" as="alternateBounds" />
          </mxGeometry>
        </mxCell>
        <mxCell id="x54wOhMbI9CH0eO8ZWnR-9" value="" style="shape=partialRectangle;html=1;whiteSpace=wrap;connectable=0;strokeColor=inherit;overflow=hidden;fillColor=none;top=0;left=0;bottom=0;right=0;pointerEvents=1;fontSize=16;" parent="x54wOhMbI9CH0eO8ZWnR-6" vertex="1">
          <mxGeometry x="554" width="276" height="95" as="geometry">
            <mxRectangle width="276" height="95" as="alternateBounds" />
          </mxGeometry>
        </mxCell>
        <mxCell id="x54wOhMbI9CH0eO8ZWnR-10" value="" style="shape=tableRow;horizontal=0;startSize=0;swimlaneHead=0;swimlaneBody=0;strokeColor=inherit;top=0;left=0;bottom=0;right=0;collapsible=0;dropTarget=0;fillColor=none;points=[[0,0.5],[1,0.5]];portConstraint=eastwest;fontSize=16;" parent="x54wOhMbI9CH0eO8ZWnR-1" vertex="1">
          <mxGeometry y="199" width="830" height="74" as="geometry" />
        </mxCell>
        <mxCell id="x54wOhMbI9CH0eO8ZWnR-11" value="" style="shape=partialRectangle;html=1;whiteSpace=wrap;connectable=0;strokeColor=inherit;overflow=hidden;fillColor=none;top=0;left=0;bottom=0;right=0;pointerEvents=1;fontSize=16;" parent="x54wOhMbI9CH0eO8ZWnR-10" vertex="1">
          <mxGeometry width="276" height="74" as="geometry">
            <mxRectangle width="276" height="74" as="alternateBounds" />
          </mxGeometry>
        </mxCell>
        <mxCell id="x54wOhMbI9CH0eO8ZWnR-12" value="" style="shape=partialRectangle;html=1;whiteSpace=wrap;connectable=0;strokeColor=inherit;overflow=hidden;fillColor=none;top=0;left=0;bottom=0;right=0;pointerEvents=1;fontSize=16;" parent="x54wOhMbI9CH0eO8ZWnR-10" vertex="1">
          <mxGeometry x="276" width="278" height="74" as="geometry">
            <mxRectangle width="278" height="74" as="alternateBounds" />
          </mxGeometry>
        </mxCell>
        <mxCell id="x54wOhMbI9CH0eO8ZWnR-13" value="" style="shape=partialRectangle;html=1;whiteSpace=wrap;connectable=0;strokeColor=inherit;overflow=hidden;fillColor=none;top=0;left=0;bottom=0;right=0;pointerEvents=1;fontSize=16;" parent="x54wOhMbI9CH0eO8ZWnR-10" vertex="1">
          <mxGeometry x="554" width="276" height="74" as="geometry">
            <mxRectangle width="276" height="74" as="alternateBounds" />
          </mxGeometry>
        </mxCell>
        <mxCell id="x54wOhMbI9CH0eO8ZWnR-14" style="shape=tableRow;horizontal=0;startSize=0;swimlaneHead=0;swimlaneBody=0;strokeColor=inherit;top=0;left=0;bottom=0;right=0;collapsible=0;dropTarget=0;fillColor=none;points=[[0,0.5],[1,0.5]];portConstraint=eastwest;fontSize=16;" parent="x54wOhMbI9CH0eO8ZWnR-1" vertex="1">
          <mxGeometry y="273" width="830" height="87" as="geometry" />
        </mxCell>
        <mxCell id="x54wOhMbI9CH0eO8ZWnR-15" value="" style="shape=partialRectangle;html=1;whiteSpace=wrap;connectable=0;strokeColor=inherit;overflow=hidden;fillColor=none;top=0;left=0;bottom=0;right=0;pointerEvents=1;fontSize=16;" parent="x54wOhMbI9CH0eO8ZWnR-14" vertex="1">
          <mxGeometry width="276" height="87" as="geometry">
            <mxRectangle width="276" height="87" as="alternateBounds" />
          </mxGeometry>
        </mxCell>
        <mxCell id="x54wOhMbI9CH0eO8ZWnR-16" value="" style="shape=partialRectangle;html=1;whiteSpace=wrap;connectable=0;strokeColor=inherit;overflow=hidden;fillColor=none;top=0;left=0;bottom=0;right=0;pointerEvents=1;fontSize=16;" parent="x54wOhMbI9CH0eO8ZWnR-14" vertex="1">
          <mxGeometry x="276" width="278" height="87" as="geometry">
            <mxRectangle width="278" height="87" as="alternateBounds" />
          </mxGeometry>
        </mxCell>
        <mxCell id="x54wOhMbI9CH0eO8ZWnR-17" value="" style="shape=partialRectangle;html=1;whiteSpace=wrap;connectable=0;strokeColor=inherit;overflow=hidden;fillColor=none;top=0;left=0;bottom=0;right=0;pointerEvents=1;fontSize=16;" parent="x54wOhMbI9CH0eO8ZWnR-14" vertex="1">
          <mxGeometry x="554" width="276" height="87" as="geometry">
            <mxRectangle width="276" height="87" as="alternateBounds" />
          </mxGeometry>
        </mxCell>
        <mxCell id="x54wOhMbI9CH0eO8ZWnR-19" style="shape=tableRow;horizontal=0;startSize=0;swimlaneHead=0;swimlaneBody=0;strokeColor=inherit;top=0;left=0;bottom=0;right=0;collapsible=0;dropTarget=0;fillColor=none;points=[[0,0.5],[1,0.5]];portConstraint=eastwest;fontSize=16;" parent="x54wOhMbI9CH0eO8ZWnR-1" vertex="1">
          <mxGeometry y="360" width="830" height="74" as="geometry" />
        </mxCell>
        <mxCell id="x54wOhMbI9CH0eO8ZWnR-20" value="" style="shape=partialRectangle;html=1;whiteSpace=wrap;connectable=0;strokeColor=inherit;overflow=hidden;fillColor=none;top=0;left=0;bottom=0;right=0;pointerEvents=1;fontSize=16;" parent="x54wOhMbI9CH0eO8ZWnR-19" vertex="1">
          <mxGeometry width="276" height="74" as="geometry">
            <mxRectangle width="276" height="74" as="alternateBounds" />
          </mxGeometry>
        </mxCell>
        <mxCell id="x54wOhMbI9CH0eO8ZWnR-21" value="" style="shape=partialRectangle;html=1;whiteSpace=wrap;connectable=0;strokeColor=inherit;overflow=hidden;fillColor=none;top=0;left=0;bottom=0;right=0;pointerEvents=1;fontSize=16;" parent="x54wOhMbI9CH0eO8ZWnR-19" vertex="1">
          <mxGeometry x="276" width="278" height="74" as="geometry">
            <mxRectangle width="278" height="74" as="alternateBounds" />
          </mxGeometry>
        </mxCell>
        <mxCell id="x54wOhMbI9CH0eO8ZWnR-22" value="" style="shape=partialRectangle;html=1;whiteSpace=wrap;connectable=0;strokeColor=inherit;overflow=hidden;fillColor=none;top=0;left=0;bottom=0;right=0;pointerEvents=1;fontSize=16;" parent="x54wOhMbI9CH0eO8ZWnR-19" vertex="1">
          <mxGeometry x="554" width="276" height="74" as="geometry">
            <mxRectangle width="276" height="74" as="alternateBounds" />
          </mxGeometry>
        </mxCell>
        <mxCell id="x54wOhMbI9CH0eO8ZWnR-23" value="Ejercicio 1 Apartado b" style="shape=table;startSize=30;container=1;collapsible=0;childLayout=tableLayout;strokeColor=default;fontSize=16;" parent="1" vertex="1">
          <mxGeometry x="10" y="570" width="830" height="434" as="geometry" />
        </mxCell>
        <mxCell id="x54wOhMbI9CH0eO8ZWnR-24" value="" style="shape=tableRow;horizontal=0;startSize=0;swimlaneHead=0;swimlaneBody=0;strokeColor=inherit;top=0;left=0;bottom=0;right=0;collapsible=0;dropTarget=0;fillColor=none;points=[[0,0.5],[1,0.5]];portConstraint=eastwest;fontSize=16;" parent="x54wOhMbI9CH0eO8ZWnR-23" vertex="1">
          <mxGeometry y="30" width="830" height="74" as="geometry" />
        </mxCell>
        <mxCell id="x54wOhMbI9CH0eO8ZWnR-25" value="" style="shape=partialRectangle;html=1;whiteSpace=wrap;connectable=0;strokeColor=inherit;overflow=hidden;fillColor=none;top=0;left=0;bottom=0;right=0;pointerEvents=1;fontSize=16;fontStyle=1" parent="x54wOhMbI9CH0eO8ZWnR-24" vertex="1">
          <mxGeometry width="276" height="74" as="geometry">
            <mxRectangle width="276" height="74" as="alternateBounds" />
          </mxGeometry>
        </mxCell>
        <mxCell id="x54wOhMbI9CH0eO8ZWnR-26" value="" style="shape=partialRectangle;html=1;whiteSpace=wrap;connectable=0;strokeColor=inherit;overflow=hidden;fillColor=none;top=0;left=0;bottom=0;right=0;pointerEvents=1;fontSize=16;fontStyle=1" parent="x54wOhMbI9CH0eO8ZWnR-24" vertex="1">
          <mxGeometry x="276" width="278" height="74" as="geometry">
            <mxRectangle width="278" height="74" as="alternateBounds" />
          </mxGeometry>
        </mxCell>
        <mxCell id="x54wOhMbI9CH0eO8ZWnR-27" value="" style="shape=partialRectangle;html=1;whiteSpace=wrap;connectable=0;strokeColor=inherit;overflow=hidden;fillColor=none;top=0;left=0;bottom=0;right=0;pointerEvents=1;fontSize=16;fontStyle=1" parent="x54wOhMbI9CH0eO8ZWnR-24" vertex="1">
          <mxGeometry x="554" width="276" height="74" as="geometry">
            <mxRectangle width="276" height="74" as="alternateBounds" />
          </mxGeometry>
        </mxCell>
        <mxCell id="x54wOhMbI9CH0eO8ZWnR-28" value="" style="shape=tableRow;horizontal=0;startSize=0;swimlaneHead=0;swimlaneBody=0;strokeColor=inherit;top=0;left=0;bottom=0;right=0;collapsible=0;dropTarget=0;fillColor=none;points=[[0,0.5],[1,0.5]];portConstraint=eastwest;fontSize=16;" parent="x54wOhMbI9CH0eO8ZWnR-23" vertex="1">
          <mxGeometry y="104" width="830" height="95" as="geometry" />
        </mxCell>
        <mxCell id="x54wOhMbI9CH0eO8ZWnR-29" value="" style="shape=partialRectangle;html=1;whiteSpace=wrap;connectable=0;strokeColor=inherit;overflow=hidden;fillColor=none;top=0;left=0;bottom=0;right=0;pointerEvents=1;fontSize=16;" parent="x54wOhMbI9CH0eO8ZWnR-28" vertex="1">
          <mxGeometry width="276" height="95" as="geometry">
            <mxRectangle width="276" height="95" as="alternateBounds" />
          </mxGeometry>
        </mxCell>
        <mxCell id="x54wOhMbI9CH0eO8ZWnR-30" value="" style="shape=partialRectangle;html=1;whiteSpace=wrap;connectable=0;strokeColor=inherit;overflow=hidden;fillColor=none;top=0;left=0;bottom=0;right=0;pointerEvents=1;fontSize=16;" parent="x54wOhMbI9CH0eO8ZWnR-28" vertex="1">
          <mxGeometry x="276" width="278" height="95" as="geometry">
            <mxRectangle width="278" height="95" as="alternateBounds" />
          </mxGeometry>
        </mxCell>
        <mxCell id="x54wOhMbI9CH0eO8ZWnR-31" value="" style="shape=partialRectangle;html=1;whiteSpace=wrap;connectable=0;strokeColor=inherit;overflow=hidden;fillColor=none;top=0;left=0;bottom=0;right=0;pointerEvents=1;fontSize=16;" parent="x54wOhMbI9CH0eO8ZWnR-28" vertex="1">
          <mxGeometry x="554" width="276" height="95" as="geometry">
            <mxRectangle width="276" height="95" as="alternateBounds" />
          </mxGeometry>
        </mxCell>
        <mxCell id="x54wOhMbI9CH0eO8ZWnR-32" value="" style="shape=tableRow;horizontal=0;startSize=0;swimlaneHead=0;swimlaneBody=0;strokeColor=inherit;top=0;left=0;bottom=0;right=0;collapsible=0;dropTarget=0;fillColor=none;points=[[0,0.5],[1,0.5]];portConstraint=eastwest;fontSize=16;" parent="x54wOhMbI9CH0eO8ZWnR-23" vertex="1">
          <mxGeometry y="199" width="830" height="74" as="geometry" />
        </mxCell>
        <mxCell id="x54wOhMbI9CH0eO8ZWnR-33" value="" style="shape=partialRectangle;html=1;whiteSpace=wrap;connectable=0;strokeColor=inherit;overflow=hidden;fillColor=none;top=0;left=0;bottom=0;right=0;pointerEvents=1;fontSize=16;" parent="x54wOhMbI9CH0eO8ZWnR-32" vertex="1">
          <mxGeometry width="276" height="74" as="geometry">
            <mxRectangle width="276" height="74" as="alternateBounds" />
          </mxGeometry>
        </mxCell>
        <mxCell id="x54wOhMbI9CH0eO8ZWnR-34" value="" style="shape=partialRectangle;html=1;whiteSpace=wrap;connectable=0;strokeColor=inherit;overflow=hidden;fillColor=none;top=0;left=0;bottom=0;right=0;pointerEvents=1;fontSize=16;" parent="x54wOhMbI9CH0eO8ZWnR-32" vertex="1">
          <mxGeometry x="276" width="278" height="74" as="geometry">
            <mxRectangle width="278" height="74" as="alternateBounds" />
          </mxGeometry>
        </mxCell>
        <mxCell id="x54wOhMbI9CH0eO8ZWnR-35" value="" style="shape=partialRectangle;html=1;whiteSpace=wrap;connectable=0;strokeColor=inherit;overflow=hidden;fillColor=none;top=0;left=0;bottom=0;right=0;pointerEvents=1;fontSize=16;" parent="x54wOhMbI9CH0eO8ZWnR-32" vertex="1">
          <mxGeometry x="554" width="276" height="74" as="geometry">
            <mxRectangle width="276" height="74" as="alternateBounds" />
          </mxGeometry>
        </mxCell>
        <mxCell id="x54wOhMbI9CH0eO8ZWnR-36" style="shape=tableRow;horizontal=0;startSize=0;swimlaneHead=0;swimlaneBody=0;strokeColor=inherit;top=0;left=0;bottom=0;right=0;collapsible=0;dropTarget=0;fillColor=none;points=[[0,0.5],[1,0.5]];portConstraint=eastwest;fontSize=16;" parent="x54wOhMbI9CH0eO8ZWnR-23" vertex="1">
          <mxGeometry y="273" width="830" height="87" as="geometry" />
        </mxCell>
        <mxCell id="x54wOhMbI9CH0eO8ZWnR-37" value="" style="shape=partialRectangle;html=1;whiteSpace=wrap;connectable=0;strokeColor=inherit;overflow=hidden;fillColor=none;top=0;left=0;bottom=0;right=0;pointerEvents=1;fontSize=16;" parent="x54wOhMbI9CH0eO8ZWnR-36" vertex="1">
          <mxGeometry width="276" height="87" as="geometry">
            <mxRectangle width="276" height="87" as="alternateBounds" />
          </mxGeometry>
        </mxCell>
        <mxCell id="x54wOhMbI9CH0eO8ZWnR-38" value="" style="shape=partialRectangle;html=1;whiteSpace=wrap;connectable=0;strokeColor=inherit;overflow=hidden;fillColor=none;top=0;left=0;bottom=0;right=0;pointerEvents=1;fontSize=16;" parent="x54wOhMbI9CH0eO8ZWnR-36" vertex="1">
          <mxGeometry x="276" width="278" height="87" as="geometry">
            <mxRectangle width="278" height="87" as="alternateBounds" />
          </mxGeometry>
        </mxCell>
        <mxCell id="x54wOhMbI9CH0eO8ZWnR-39" value="" style="shape=partialRectangle;html=1;whiteSpace=wrap;connectable=0;strokeColor=inherit;overflow=hidden;fillColor=none;top=0;left=0;bottom=0;right=0;pointerEvents=1;fontSize=16;" parent="x54wOhMbI9CH0eO8ZWnR-36" vertex="1">
          <mxGeometry x="554" width="276" height="87" as="geometry">
            <mxRectangle width="276" height="87" as="alternateBounds" />
          </mxGeometry>
        </mxCell>
        <mxCell id="x54wOhMbI9CH0eO8ZWnR-40" style="shape=tableRow;horizontal=0;startSize=0;swimlaneHead=0;swimlaneBody=0;strokeColor=inherit;top=0;left=0;bottom=0;right=0;collapsible=0;dropTarget=0;fillColor=none;points=[[0,0.5],[1,0.5]];portConstraint=eastwest;fontSize=16;" parent="x54wOhMbI9CH0eO8ZWnR-23" vertex="1">
          <mxGeometry y="360" width="830" height="74" as="geometry" />
        </mxCell>
        <mxCell id="x54wOhMbI9CH0eO8ZWnR-41" value="" style="shape=partialRectangle;html=1;whiteSpace=wrap;connectable=0;strokeColor=inherit;overflow=hidden;fillColor=none;top=0;left=0;bottom=0;right=0;pointerEvents=1;fontSize=16;" parent="x54wOhMbI9CH0eO8ZWnR-40" vertex="1">
          <mxGeometry width="276" height="74" as="geometry">
            <mxRectangle width="276" height="74" as="alternateBounds" />
          </mxGeometry>
        </mxCell>
        <mxCell id="x54wOhMbI9CH0eO8ZWnR-42" value="" style="shape=partialRectangle;html=1;whiteSpace=wrap;connectable=0;strokeColor=inherit;overflow=hidden;fillColor=none;top=0;left=0;bottom=0;right=0;pointerEvents=1;fontSize=16;" parent="x54wOhMbI9CH0eO8ZWnR-40" vertex="1">
          <mxGeometry x="276" width="278" height="74" as="geometry">
            <mxRectangle width="278" height="74" as="alternateBounds" />
          </mxGeometry>
        </mxCell>
        <mxCell id="x54wOhMbI9CH0eO8ZWnR-43" value="" style="shape=partialRectangle;html=1;whiteSpace=wrap;connectable=0;strokeColor=inherit;overflow=hidden;fillColor=none;top=0;left=0;bottom=0;right=0;pointerEvents=1;fontSize=16;" parent="x54wOhMbI9CH0eO8ZWnR-40" vertex="1">
          <mxGeometry x="554" width="276" height="74" as="geometry">
            <mxRectangle width="276" height="74" as="alternateBounds" />
          </mxGeometry>
        </mxCell>
        <mxCell id="x54wOhMbI9CH0eO8ZWnR-44" value="" style="endArrow=none;html=1;rounded=0;entryX=0.984;entryY=-0.018;entryDx=0;entryDy=0;entryPerimeter=0;fillColor=#dae8fc;strokeColor=#6c8ebf;strokeWidth=6;" parent="1" target="x54wOhMbI9CH0eO8ZWnR-23" edge="1">
          <mxGeometry width="50" height="50" relative="1" as="geometry">
            <mxPoint x="20" y="561" as="sourcePoint" />
            <mxPoint x="450" y="710" as="targetPoint" />
          </mxGeometry>
        </mxCell>
        <mxCell id="x54wOhMbI9CH0eO8ZWnR-45" value="" style="endArrow=none;html=1;rounded=0;entryX=0.984;entryY=-0.018;entryDx=0;entryDy=0;entryPerimeter=0;fillColor=#dae8fc;strokeColor=#6c8ebf;strokeWidth=6;" parent="1" edge="1">
          <mxGeometry width="50" height="50" relative="1" as="geometry">
            <mxPoint x="20" y="1020" as="sourcePoint" />
            <mxPoint x="827" y="1021" as="targetPoint" />
          </mxGeometry>
        </mxCell>
        <mxCell id="x54wOhMbI9CH0eO8ZWnR-47" value="&lt;b&gt;Ejercicio 1 apartado C&lt;/b&gt;" style="text;html=1;align=center;verticalAlign=middle;whiteSpace=wrap;rounded=0;" parent="1" vertex="1">
          <mxGeometry x="360" y="1030" width="185" height="30" as="geometry" />
        </mxCell>
        <mxCell id="x54wOhMbI9CH0eO8ZWnR-78" value="Relación" style="rhombus;whiteSpace=wrap;html=1;" parent="1" vertex="1">
          <mxGeometry x="40" y="1080" width="80" height="80" as="geometry" />
        </mxCell>
        <mxCell id="x54wOhMbI9CH0eO8ZWnR-99" value="" style="endArrow=none;html=1;rounded=0;entryX=0.984;entryY=-0.018;entryDx=0;entryDy=0;entryPerimeter=0;fillColor=#dae8fc;strokeColor=#6c8ebf;strokeWidth=6;" parent="1" edge="1">
          <mxGeometry width="50" height="50" relative="1" as="geometry">
            <mxPoint x="20" y="1620" as="sourcePoint" />
            <mxPoint x="827" y="1621" as="targetPoint" />
          </mxGeometry>
        </mxCell>
        <mxCell id="x54wOhMbI9CH0eO8ZWnR-100" value="&lt;b&gt;Ejercicio 1 apartado D&lt;/b&gt;" style="text;html=1;align=center;verticalAlign=middle;whiteSpace=wrap;rounded=0;" parent="1" vertex="1">
          <mxGeometry x="360" y="1630" width="185" height="30" as="geometry" />
        </mxCell>
        <mxCell id="x54wOhMbI9CH0eO8ZWnR-194" value="" style="endArrow=none;html=1;rounded=0;entryX=0.984;entryY=-0.018;entryDx=0;entryDy=0;entryPerimeter=0;fillColor=#d5e8d4;strokeColor=#82b366;strokeWidth=6;" parent="1" edge="1">
          <mxGeometry width="50" height="50" relative="1" as="geometry">
            <mxPoint x="10" y="2520" as="sourcePoint" />
            <mxPoint x="817" y="2521" as="targetPoint" />
          </mxGeometry>
        </mxCell>
        <mxCell id="x54wOhMbI9CH0eO8ZWnR-195" value="&lt;b&gt;Ejercicio 2&lt;/b&gt;" style="text;html=1;align=center;verticalAlign=middle;whiteSpace=wrap;rounded=0;" parent="1" vertex="1">
          <mxGeometry x="345" y="2530" width="185" height="30" as="geometry" />
        </mxCell>
        <mxCell id="6Elr8fg-dgbkOv0ImQVO-1" value="" style="shape=table;startSize=0;container=1;collapsible=0;childLayout=tableLayout;" vertex="1" parent="1">
          <mxGeometry x="20" y="1170" width="140" height="150" as="geometry" />
        </mxCell>
        <mxCell id="6Elr8fg-dgbkOv0ImQVO-2" value="" style="shape=tableRow;horizontal=0;startSize=0;swimlaneHead=0;swimlaneBody=0;strokeColor=inherit;top=0;left=0;bottom=0;right=0;collapsible=0;dropTarget=0;fillColor=none;points=[[0,0.5],[1,0.5]];portConstraint=eastwest;" vertex="1" parent="6Elr8fg-dgbkOv0ImQVO-1">
          <mxGeometry width="140" height="40" as="geometry" />
        </mxCell>
        <mxCell id="6Elr8fg-dgbkOv0ImQVO-3" value="Entidad" style="shape=partialRectangle;html=1;whiteSpace=wrap;connectable=0;strokeColor=#6c8ebf;overflow=hidden;fillColor=#dae8fc;top=0;left=0;bottom=0;right=0;pointerEvents=1;" vertex="1" parent="6Elr8fg-dgbkOv0ImQVO-2">
          <mxGeometry width="140" height="40" as="geometry">
            <mxRectangle width="140" height="40" as="alternateBounds" />
          </mxGeometry>
        </mxCell>
        <mxCell id="6Elr8fg-dgbkOv0ImQVO-4" value="" style="shape=tableRow;horizontal=0;startSize=0;swimlaneHead=0;swimlaneBody=0;strokeColor=inherit;top=0;left=0;bottom=0;right=0;collapsible=0;dropTarget=0;fillColor=none;points=[[0,0.5],[1,0.5]];portConstraint=eastwest;" vertex="1" parent="6Elr8fg-dgbkOv0ImQVO-1">
          <mxGeometry y="40" width="140" height="110" as="geometry" />
        </mxCell>
        <mxCell id="6Elr8fg-dgbkOv0ImQVO-5" value="&lt;u&gt;Atributos&lt;/u&gt;" style="shape=partialRectangle;html=1;whiteSpace=wrap;connectable=0;strokeColor=inherit;overflow=hidden;fillColor=none;top=0;left=0;bottom=0;right=0;pointerEvents=1;" vertex="1" parent="6Elr8fg-dgbkOv0ImQVO-4">
          <mxGeometry width="140" height="110" as="geometry">
            <mxRectangle width="140" height="110" as="alternateBounds" />
          </mxGeometry>
        </mxCell>
        <mxCell id="6Elr8fg-dgbkOv0ImQVO-6" value="Relación" style="rhombus;whiteSpace=wrap;html=1;" vertex="1" parent="1">
          <mxGeometry x="40" y="1670" width="80" height="80" as="geometry" />
        </mxCell>
        <mxCell id="6Elr8fg-dgbkOv0ImQVO-7" value="" style="shape=table;startSize=0;container=1;collapsible=0;childLayout=tableLayout;" vertex="1" parent="1">
          <mxGeometry x="20" y="1760" width="140" height="150" as="geometry" />
        </mxCell>
        <mxCell id="6Elr8fg-dgbkOv0ImQVO-8" value="" style="shape=tableRow;horizontal=0;startSize=0;swimlaneHead=0;swimlaneBody=0;strokeColor=inherit;top=0;left=0;bottom=0;right=0;collapsible=0;dropTarget=0;fillColor=none;points=[[0,0.5],[1,0.5]];portConstraint=eastwest;" vertex="1" parent="6Elr8fg-dgbkOv0ImQVO-7">
          <mxGeometry width="140" height="40" as="geometry" />
        </mxCell>
        <mxCell id="6Elr8fg-dgbkOv0ImQVO-9" value="Entidad" style="shape=partialRectangle;html=1;whiteSpace=wrap;connectable=0;strokeColor=#6c8ebf;overflow=hidden;fillColor=#dae8fc;top=0;left=0;bottom=0;right=0;pointerEvents=1;" vertex="1" parent="6Elr8fg-dgbkOv0ImQVO-8">
          <mxGeometry width="140" height="40" as="geometry">
            <mxRectangle width="140" height="40" as="alternateBounds" />
          </mxGeometry>
        </mxCell>
        <mxCell id="6Elr8fg-dgbkOv0ImQVO-10" value="" style="shape=tableRow;horizontal=0;startSize=0;swimlaneHead=0;swimlaneBody=0;strokeColor=inherit;top=0;left=0;bottom=0;right=0;collapsible=0;dropTarget=0;fillColor=none;points=[[0,0.5],[1,0.5]];portConstraint=eastwest;" vertex="1" parent="6Elr8fg-dgbkOv0ImQVO-7">
          <mxGeometry y="40" width="140" height="110" as="geometry" />
        </mxCell>
        <mxCell id="6Elr8fg-dgbkOv0ImQVO-11" value="&lt;u&gt;Atributos&lt;/u&gt;" style="shape=partialRectangle;html=1;whiteSpace=wrap;connectable=0;strokeColor=inherit;overflow=hidden;fillColor=none;top=0;left=0;bottom=0;right=0;pointerEvents=1;" vertex="1" parent="6Elr8fg-dgbkOv0ImQVO-10">
          <mxGeometry width="140" height="110" as="geometry">
            <mxRectangle width="140" height="110" as="alternateBounds" />
          </mxGeometry>
        </mxCell>
        <mxCell id="6Elr8fg-dgbkOv0ImQVO-12" value="Relación" style="rhombus;whiteSpace=wrap;html=1;" vertex="1" parent="1">
          <mxGeometry x="40" y="2600" width="80" height="80" as="geometry" />
        </mxCell>
        <mxCell id="6Elr8fg-dgbkOv0ImQVO-13" value="" style="shape=table;startSize=0;container=1;collapsible=0;childLayout=tableLayout;" vertex="1" parent="1">
          <mxGeometry x="20" y="2690" width="140" height="150" as="geometry" />
        </mxCell>
        <mxCell id="6Elr8fg-dgbkOv0ImQVO-14" value="" style="shape=tableRow;horizontal=0;startSize=0;swimlaneHead=0;swimlaneBody=0;strokeColor=inherit;top=0;left=0;bottom=0;right=0;collapsible=0;dropTarget=0;fillColor=none;points=[[0,0.5],[1,0.5]];portConstraint=eastwest;" vertex="1" parent="6Elr8fg-dgbkOv0ImQVO-13">
          <mxGeometry width="140" height="40" as="geometry" />
        </mxCell>
        <mxCell id="6Elr8fg-dgbkOv0ImQVO-15" value="Entidad" style="shape=partialRectangle;html=1;whiteSpace=wrap;connectable=0;strokeColor=#6c8ebf;overflow=hidden;fillColor=#dae8fc;top=0;left=0;bottom=0;right=0;pointerEvents=1;" vertex="1" parent="6Elr8fg-dgbkOv0ImQVO-14">
          <mxGeometry width="140" height="40" as="geometry">
            <mxRectangle width="140" height="40" as="alternateBounds" />
          </mxGeometry>
        </mxCell>
        <mxCell id="6Elr8fg-dgbkOv0ImQVO-16" value="" style="shape=tableRow;horizontal=0;startSize=0;swimlaneHead=0;swimlaneBody=0;strokeColor=inherit;top=0;left=0;bottom=0;right=0;collapsible=0;dropTarget=0;fillColor=none;points=[[0,0.5],[1,0.5]];portConstraint=eastwest;" vertex="1" parent="6Elr8fg-dgbkOv0ImQVO-13">
          <mxGeometry y="40" width="140" height="110" as="geometry" />
        </mxCell>
        <mxCell id="6Elr8fg-dgbkOv0ImQVO-17" value="&lt;u&gt;Atributos&lt;/u&gt;" style="shape=partialRectangle;html=1;whiteSpace=wrap;connectable=0;strokeColor=inherit;overflow=hidden;fillColor=none;top=0;left=0;bottom=0;right=0;pointerEvents=1;" vertex="1" parent="6Elr8fg-dgbkOv0ImQVO-16">
          <mxGeometry width="140" height="110" as="geometry">
            <mxRectangle width="140" height="110" as="alternateBounds" />
          </mxGeometry>
        </mxCell>
        <mxCell id="6Elr8fg-dgbkOv0ImQVO-19" value="&lt;b&gt;PON AQUÍ TU NOMBRE Y APELLIDOS COMPLETOS&lt;/b&gt;" style="text;html=1;align=center;verticalAlign=middle;whiteSpace=wrap;rounded=0;" vertex="1" parent="1">
          <mxGeometry x="215" y="50" width="420" height="30" as="geometry" />
        </mxCell>
        <mxCell id="6Elr8fg-dgbkOv0ImQVO-20" value="&lt;b&gt;NO OLVIDES EXPORTAR TODO EN PDF Y SUBIRLO AL AULA VIRTUAL&lt;/b&gt;" style="text;html=1;align=center;verticalAlign=middle;whiteSpace=wrap;rounded=0;" vertex="1" parent="1">
          <mxGeometry x="242.5" y="3370" width="420" height="30" as="geometry" />
        </mxCell>
      </root>
    </mxGraphModel>
  </diagram>
</mxfile>
